<?xml version="1.0" standalone="no"?>
<!DOCTYPE svg PUBLIC "-//W3C//DTD SVG 20010904//EN"
 "http://www.w3.org/TR/2001/REC-SVG-20010904/DTD/svg10.dtd">
<svg version="1.0" xmlns="http://www.w3.org/2000/svg"
 width="1000.000000pt" height="1000.000000pt" viewBox="0 0 1000.000000 1000.000000"
 preserveAspectRatio="xMidYMid meet">

<g transform="translate(0.000000,1000.000000) scale(0.100000,-0.100000)"
fill="#000000" stroke="none">
<path d="M4837 7940 c-633 -61 -1210 -336 -1627 -777 -602 -636 -841 -1542
-630 -2384 108 -426 305 -787 617 -1127 176 -191 449 -396 688 -515 407 -203
772 -286 1200 -274 387 11 673 82 1030 257 764 373 1297 1121 1410 1977 19
139 21 433 5 578 -21 186 -75 412 -146 604 -52 140 -183 401 -260 516 -263
394 -595 687 -1009 891 -342 167 -657 246 -1040 258 -82 2 -189 1 -238 -4z
m241 -315 c69 -21 140 -80 177 -146 27 -48 30 -63 30 -139 0 -93 -16 -137 -75
-203 -27 -31 -104 -77 -153 -91 -17 -5 -18 -34 -16 -561 1 -531 0 -557 -17
-570 -26 -19 -64 -19 -86 2 -17 15 -18 46 -18 572 l0 556 -49 22 c-108 50
-175 152 -176 268 -1 208 185 348 383 290z m-793 -128 c21 -12 53 -42 70 -65
26 -39 30 -52 30 -112 0 -61 -3 -72 -31 -107 -17 -21 -45 -47 -62 -58 -30 -19
-31 -23 -32 -86 l0 -66 218 -211 c120 -116 224 -223 232 -237 12 -23 11 -28
-7 -53 -11 -15 -32 -28 -48 -30 -24 -3 -54 23 -239 205 -116 114 -228 227
-248 251 -37 43 -38 45 -38 127 0 82 -1 85 -27 99 -86 44 -125 154 -88 244 45
106 173 154 270 99z m1590 -16 c80 -37 120 -107 113 -195 -6 -68 -41 -124 -94
-151 -21 -11 -41 -21 -43 -22 -5 -3 -9 -42 -10 -103 -1 -44 -1 -45 -246 -290
-191 -191 -245 -251 -245 -271 0 -57 -58 -85 -103 -49 -33 27 -37 87 -8 134
11 17 121 129 245 250 l226 218 0 59 c0 57 -2 61 -42 97 -48 43 -68 85 -68
142 0 144 146 241 275 181z m-2198 -382 c63 -23 111 -91 122 -169 6 -44 13
-53 171 -202 323 -306 360 -343 360 -361 0 -21 -43 -67 -62 -67 -27 1 -60 30
-249 211 -286 274 -283 271 -300 254 -8 -8 -35 -20 -61 -27 -125 -33 -243 59
-241 187 0 75 48 148 113 174 34 13 112 13 147 0z m2765 -3 c47 -20 105 -87
114 -131 24 -130 -57 -235 -183 -235 -29 0 -68 7 -87 17 l-35 16 -236 -229
c-129 -126 -246 -233 -259 -238 -35 -13 -76 15 -76 53 0 29 68 101 388 406
l112 108 0 48 c0 59 13 95 48 133 56 59 144 81 214 52z m-2985 -400 c55 -36
87 -97 88 -165 l0 -54 273 -265 c231 -224 272 -269 272 -293 0 -35 -39 -64
-72 -55 -21 5 -162 135 -443 408 -108 105 -110 106 -137 92 -57 -30 -163 -11
-216 39 -74 69 -72 210 5 279 60 54 160 60 230 14z m3281 19 c76 -32 122 -102
122 -185 0 -61 -17 -96 -64 -138 -50 -44 -84 -48 -213 -30 -16 2 -61 -35 -182
-149 -88 -84 -169 -153 -179 -153 -27 0 -62 37 -62 67 0 17 14 39 43 67 23 22
95 92 160 155 l117 114 0 64 c0 71 13 104 58 146 55 53 134 69 200 42z m-2157
-436 c12 -12 32 -46 46 -77 14 -31 122 -255 240 -497 301 -613 574 -1177 580
-1196 2 -9 -3 -23 -12 -33 -14 -13 -40 -16 -168 -16 -84 0 -162 3 -175 6 -18
5 -43 48 -117 201 l-94 194 -350 -2 c-251 -1 -353 -4 -360 -12 -5 -7 -44 -86
-86 -177 -42 -91 -85 -173 -94 -183 -15 -15 -40 -18 -180 -22 -169 -5 -201 1
-201 34 0 10 57 135 126 277 69 143 204 421 299 619 95 198 192 398 216 445
23 47 77 159 120 249 43 90 87 175 98 188 27 30 83 31 112 2z m783 -35 c43
-44 35 -114 -16 -140 -60 -31 -128 13 -128 83 0 75 90 111 144 57z m-2143 -60
c92 -51 145 -148 138 -254 l-4 -52 153 -152 c84 -83 163 -156 175 -163 12 -7
59 -12 104 -13 73 0 84 -2 97 -22 21 -29 20 -57 -1 -80 -14 -15 -32 -18 -133
-18 l-118 0 -167 163 c-92 89 -172 164 -177 166 -5 2 -20 -7 -32 -18 -31 -29
-117 -61 -164 -61 -171 0 -306 159 -271 320 38 179 239 271 400 184z m3817 -4
c140 -70 205 -225 157 -371 -25 -74 -110 -159 -184 -184 -72 -23 -184 -17
-236 13 l-36 22 -97 -94 c-151 -147 -130 -137 -279 -134 l-127 3 -16 28 c-13
24 -13 30 0 55 15 26 19 27 123 32 l107 5 97 95 c54 52 99 96 101 97 3 1 -4
19 -14 40 -11 22 -20 68 -22 111 -5 93 15 149 77 215 69 74 117 95 222 96 54
1 76 -4 127 -29z m-1024 -202 c14 -20 16 -108 16 -755 l0 -732 -22 -15 c-18
-13 -51 -16 -154 -16 -118 0 -134 2 -158 21 l-26 20 0 734 0 734 22 15 c18 13
52 16 165 16 135 0 143 -1 157 -22z m-653 -57 c46 -47 37 -106 -22 -137 -77
-39 -158 42 -117 119 29 56 93 64 139 18z m1010 -27 c35 -37 33 -98 -4 -130
-72 -62 -180 13 -147 101 15 39 38 54 86 55 31 0 46 -6 65 -26z m-3127 -426
c21 -29 20 -67 -1 -90 -14 -16 -35 -18 -200 -18 -170 0 -184 1 -203 20 -24 24
-26 67 -3 92 14 16 35 18 204 18 183 0 188 -1 203 -22z m485 -242 c28 -25 27
-70 -1 -90 -17 -12 -48 -16 -120 -16 l-98 0 -138 -134 c-154 -151 -173 -176
-151 -203 42 -50 50 -123 20 -188 -63 -140 -263 -153 -344 -23 -52 83 -46 164
17 236 37 43 108 76 142 68 21 -6 48 16 205 171 99 98 189 183 199 188 11 6
70 10 133 10 99 0 118 -3 136 -19z m2724 15 c13 -5 82 -64 153 -130 71 -67
133 -121 138 -121 4 0 24 14 44 31 47 42 91 59 149 59 73 0 116 -16 168 -62
93 -82 119 -195 69 -296 -75 -151 -268 -185 -399 -70 -53 47 -75 89 -84 163
-6 50 -8 52 -144 178 l-138 127 -84 0 c-78 0 -85 2 -104 26 -28 36 -26 58 5
83 22 18 41 21 115 21 48 0 99 -4 112 -9z m-22 -460 c74 -74 -1 -186 -98 -146
-38 16 -53 41 -53 90 0 80 92 114 151 56z m-1906 -166 c25 -24 33 -73 19 -110
-8 -20 -56 -45 -86 -45 -42 1 -88 53 -88 100 0 12 13 35 29 51 38 38 91 40
126 4z m1755 -249 c74 -69 70 -68 125 -41 58 30 96 31 151 6 104 -47 154 -174
105 -269 -35 -69 -93 -102 -179 -102 -107 0 -194 80 -194 180 0 48 -2 50 -74
115 -85 76 -95 107 -47 144 34 27 55 21 113 -33z m-2804 -15 c66 -30 124 -118
124 -187 0 -72 -55 -154 -125 -185 -154 -70 -330 76 -285 236 25 90 109 155
200 155 25 0 63 -9 86 -19z m832 -27 c14 -9 22 -26 22 -43 0 -24 -46 -75 -282
-313 -156 -157 -292 -288 -304 -292 -30 -9 -74 28 -74 62 0 22 54 81 287 314
189 189 295 288 308 288 11 0 31 -7 43 -16z m350 -150 c1 -71 0 -140 -3 -153
-3 -13 -34 -51 -69 -85 -34 -33 -95 -96 -134 -138 l-72 -77 25 -37 c86 -127
33 -272 -113 -305 -94 -21 -196 38 -227 132 -35 105 35 227 142 247 34 6 59
27 181 153 l142 147 1 93 c2 121 8 151 38 166 19 9 31 9 55 -1 l31 -12 3 -130z
m873 -191 c118 -120 231 -237 251 -260 26 -29 50 -45 80 -53 61 -17 133 -92
146 -154 15 -72 -2 -130 -53 -181 -132 -133 -357 -18 -332 169 3 22 19 59 36
83 17 24 31 47 31 50 0 4 -103 111 -230 238 -249 251 -257 263 -204 304 15 12
34 21 43 21 9 0 114 -98 232 -217z m-503 180 c8 -12 12 -69 12 -203 l0 -185
51 -19 c104 -36 186 -144 196 -255 11 -121 -62 -248 -174 -301 -74 -35 -180
-34 -255 3 -131 64 -196 219 -153 365 21 68 97 152 166 182 l52 22 -8 162 c-8
186 -2 234 29 246 27 12 68 3 84 -17z m1054 -211 c249 -248 258 -262 218 -302
-45 -45 -59 -36 -312 217 -249 248 -259 263 -221 305 9 10 30 18 47 18 27 0
61 -31 268 -238z"/>
<path d="M4925 7491 c-108 -49 -137 -172 -62 -258 57 -65 124 -79 202 -42 124
59 125 238 2 298 -53 26 -90 26 -142 2z"/>
<path d="M4146 7379 c-34 -27 -35 -71 -1 -104 30 -30 64 -32 99 -4 41 32 34
89 -15 114 -37 20 -51 19 -83 -6z"/>
<path d="M5740 7350 c-29 -29 -26 -74 6 -99 35 -28 75 -27 102 2 46 48 14 117
-53 117 -22 0 -43 -8 -55 -20z"/>
<path d="M3555 6970 c-25 -27 -22 -80 6 -102 42 -35 101 -12 115 44 13 59 -80
104 -121 58z"/>
<path d="M6326 6969 c-53 -41 -21 -119 48 -119 64 0 90 79 40 119 -15 12 -34
21 -44 21 -10 0 -29 -9 -44 -21z"/>
<path d="M3340 6602 c-62 -20 -69 -97 -11 -126 57 -30 120 30 93 88 -11 25
-57 46 -82 38z"/>
<path d="M6615 6580 c-26 -29 -22 -70 10 -98 65 -56 156 37 95 98 -26 26 -81
26 -105 0z"/>
<path d="M4482 5503 c-94 -200 -150 -328 -146 -335 7 -11 394 -10 394 1 0 5
-34 81 -76 168 -41 87 -85 179 -96 206 -11 26 -24 47 -28 47 -3 0 -25 -39 -48
-87z"/>
<path d="M3035 6076 c-104 -47 -115 -187 -20 -246 87 -54 203 5 212 107 9 104
-99 182 -192 139z"/>
<path d="M6855 6073 c-35 -9 -75 -44 -95 -83 -78 -153 95 -315 237 -223 169
109 55 355 -142 306z"/>
<path d="M3007 4732 c-22 -25 -22 -85 1 -105 9 -8 29 -19 44 -22 22 -6 33 -1
59 24 25 25 30 37 25 59 -14 57 -93 84 -129 44z"/>
<path d="M6874 4931 c-67 -41 -71 -132 -8 -190 33 -31 40 -33 87 -28 94 9 144
96 102 177 -30 58 -120 78 -181 41z"/>
<path d="M6435 4205 c-33 -32 -33 -74 -1 -105 34 -31 74 -29 103 4 31 36 29
62 -6 97 -36 35 -64 37 -96 4z"/>
<path d="M3342 4234 c-73 -51 -24 -166 64 -150 38 8 74 47 74 83 0 34 -51 83
-87 83 -16 0 -39 -7 -51 -16z"/>
<path d="M4200 3620 c-28 -28 -26 -75 5 -105 13 -14 31 -25 39 -25 30 0 65 23
76 50 29 71 -66 134 -120 80z"/>
<path d="M5761 3524 c-28 -35 -26 -69 4 -99 49 -50 125 -20 125 48 0 70 -87
104 -129 51z"/>
<path d="M4913 3621 c-46 -21 -79 -66 -89 -118 -22 -118 94 -228 203 -193 113
37 163 142 113 240 -41 81 -140 112 -227 71z"/>
<path d="M3043 2570 c-98 -20 -213 -112 -254 -203 -20 -43 -24 -69 -24 -152 0
-89 3 -106 27 -155 71 -145 222 -224 379 -199 78 13 155 48 197 92 l33 34 -57
48 c-52 45 -58 47 -78 35 -58 -38 -94 -50 -146 -50 -72 0 -116 24 -157 84 -28
42 -33 57 -33 110 0 73 20 117 74 160 30 25 48 31 99 34 53 3 70 -1 121 -26
l59 -30 54 50 c50 48 52 52 37 69 -32 35 -109 78 -169 94 -64 16 -97 17 -162
5z"/>
<path d="M3707 2563 c-9 -8 -9 -666 -1 -687 5 -14 36 -16 240 -16 l235 0 -3
78 -3 77 -150 0 -150 0 -3 278 -2 277 -78 0 c-43 0 -82 -3 -85 -7z"/>
<path d="M4452 2313 l3 -258 27 -45 c64 -108 148 -155 278 -154 140 1 225 52
281 169 l29 60 0 243 0 242 -79 0 -79 0 -4 -233 c-3 -258 -6 -270 -71 -304
-45 -23 -120 -22 -154 3 -67 50 -68 53 -71 305 l-3 229 -80 0 -80 0 3 -257z"/>
<path d="M5410 2214 l0 -356 208 4 c190 3 210 5 248 25 50 26 102 84 110 121
3 15 8 33 10 40 14 44 -49 158 -96 174 -12 5 -13 9 -2 24 47 71 52 82 52 124
0 89 -60 165 -149 190 -20 5 -114 10 -208 10 l-173 0 0 -356z m350 181 c26
-23 26 -76 1 -99 -15 -14 -35 -16 -102 -14 l-84 3 -3 54 c-5 81 -5 81 88 77
60 -2 85 -7 100 -21z m40 -277 c27 -29 25 -54 -5 -83 -22 -23 -32 -25 -118
-25 -77 0 -96 3 -101 16 -8 21 -8 99 1 107 3 4 50 7 104 7 88 0 100 -2 119
-22z"/>
<path d="M6550 2563 c0 -4 52 -80 115 -168 63 -88 115 -166 115 -173 0 -7 -28
-52 -63 -100 -57 -78 -152 -217 -171 -249 -5 -10 14 -13 87 -13 l95 0 63 91
c35 51 73 103 84 116 l21 25 80 -114 80 -113 97 -3 c53 -1 97 0 97 3 0 6 -181
264 -223 319 -21 26 -28 42 -21 51 32 46 164 229 196 272 21 29 38 55 38 58 0
3 -44 4 -97 3 l-97 -3 -71 -104 c-39 -57 -75 -104 -80 -104 -5 0 -41 47 -79
104 l-71 104 -97 3 c-54 1 -98 -1 -98 -5z"/>
</g>
</svg>
